<svg xmlns="http://www.w3.org/2000/svg" viewBox="0 0 212.24 146.89"><defs><style>.cls-1{fill:#002e6d;}.cls-2{fill:#ffe800;}.cls-3{fill:#fff;}</style></defs><title>Recurso 1</title><g id="Capa_2" data-name="Capa 2"><g id="Capa_1-2" data-name="Capa 1"><g id="Capa_2-2" data-name="Capa 2"><g id="Capa_1-2-2" data-name="Capa 1-2"><path class="cls-1" d="M212.24,69.41C212.24,31.17,164.73,0,106.12,0S0,31.17,0,69.41v4.06C0,114,41.52,146.89,106.11,146.89c65,0,106.13-32.85,106.13-73.41Z"/><path class="cls-2" d="M208.17,69.37c0,36.05-45.68,65.27-102,65.27s-102-29.22-102-65.27S49.84,4.1,106.17,4.1,208.17,33.32,208.17,69.37Z"/><path class="cls-3" d="M72.27,48.78c-.06.1-1.08,1.15-.42,2,1.61,2.06,6.59,3.24,11.61,2.11,3-.67,6.84-3.72,10.54-6.72,4-3.2,8-6.4,12-7.68a13.82,13.82,0,0,1,8.78-.23c2,.59,4.3,1.89,8,4.67,7,5.25,35.06,29.76,39.9,34a242.66,242.66,0,0,1,44.86-14.44c-2-12.57-9.7-24.08-21.3-33.5-16.17,6.79-35.93,10.33-55.26.89-.1,0-10.56-5-20.88-4.74-15.33.35-22,7-29,14Z"/><path class="cls-3" d="M161.61,79.63c-.32-.3-33-28.89-40.41-34.46-4.28-3.21-6.67-4-9.17-4.35a12.58,12.58,0,0,0-4.36.42c-3.44.94-7.94,4-11.94,7.12s-8,6.4-11.67,7.21c-4.62,1-10.27-.18-12.85-1.93a5.69,5.69,0,0,1-2.14-2.34A3.93,3.93,0,0,1,70.17,47l9-9.75q1.56-1.58,3.18-3.13A57.82,57.82,0,0,0,74.13,36a36,36,0,0,1-9.59,1.79,89.78,89.78,0,0,1-9.79-1.54,145.45,145.45,0,0,1-26-9.4C15.93,36.4,7.36,48.34,4.88,61.48c1.84.49,4.81,1.37,6.06,1.65C40,69.58,49,76.23,50.62,77.61a9.6,9.6,0,0,1,15.06.89,10.93,10.93,0,0,1,6.91-2.43,12.75,12.75,0,0,1,4.15.72,9.52,9.52,0,0,1,5.84,5.28,9.69,9.69,0,0,1,4-.86,12.17,12.17,0,0,1,4.82,1.07c5.35,2.29,6.19,7.55,5.7,11.51a8.88,8.88,0,0,1,1.15-.07,11.5,11.5,0,0,1,10.13,16.94c1.72,1,6.12,3.17,10,2.68,3.08-.4,4.25-1.45,4.67-2s.59-.88.31-1.23L115.17,101s-1.35-1.28-.9-1.77,1.29.22,1.88.71c4.17,3.48,9.26,8.74,9.26,8.74s.42.72,2.3,1a8.48,8.48,0,0,0,6.47-1.5,10.31,10.31,0,0,0,1.42-1.46.4.4,0,0,1-.09.07c2.09-2.68-.23-5.39-.23-5.39l-9.56-10.73s-1.36-1.26-.9-1.77,1.29.22,1.89.72c3,2.53,7.31,6.82,11.4,10.84.8.58,4.4,2.81,9.17-.32,2.9-1.9,3.48-4.23,3.4-6a6.87,6.87,0,0,0-2-4L135.63,77.07s-1.38-1.18-.89-1.78,1.3.22,1.88.72C140.78,79.48,152,89.8,152,89.8a7.91,7.91,0,0,0,8.86-.17A6,6,0,0,0,163.77,85,6.9,6.9,0,0,0,161.61,79.63Z"/><path class="cls-3" d="M98.29,96.27c-2,0-4.24,1.17-4.53,1s.13-.92.32-1.39,2.86-8.49-3.64-11.27c-5-2.14-8,.27-9.06,1.35-.27.29-.39.26-.42-.1a7.18,7.18,0,0,0-5-6.66,9.81,9.81,0,0,0-11.08,4,7.1,7.1,0,1,0-7,8,7,7,0,0,0,4.92-2,.28.28,0,0,1,0,.24c-.3,1.76-.85,8.16,5.85,10.77a7,7,0,0,0,6.83-1c.57-.4.66-.24.58.3-.24,1.64.06,5.17,5,7.17a6.35,6.35,0,0,0,7.44-1.47c.64-.58.81-.48.84.42a9,9,0,1,0,9-9.36Z"/><path class="cls-1" d="M162.88,76.17c-10.07-8.79-33.33-29-39.63-33.75-3.6-2.7-6.06-4.13-8.21-4.78a13.91,13.91,0,0,0-4-.62,16.81,16.81,0,0,0-5.12.86c-4.07,1.29-8.13,4.51-12,7.63l-.2.16c-3.66,2.9-7.44,5.91-10.3,6.55a17.45,17.45,0,0,1-3.81.43c-3.2,0-6.07-.93-7.15-2.31-.18-.23-.07-.59.35-1.12v-.07l8.86-9.55c6.9-6.89,13.45-13.43,28.53-13.79h.8c9.39,0,18.77,4.21,19.82,4.7a61.45,61.45,0,0,0,27,6.48c9.52,0,19.34-2.36,29.67-7.11-1.16-1-2.36-1.91-3.59-2.84C174.83,31,166.18,33,157.85,33a57.55,57.55,0,0,1-25.29-6.09c-.43-.21-10.79-5.09-21.57-5.1h-.86c-12.66.3-19.8,4.8-24.6,8.74a48.8,48.8,0,0,0-12.27,2.24,33.61,33.61,0,0,1-8.65,1.66c-1.11,0-3.11-.11-3.29-.11-3.09-.1-18.69-3.92-31.1-8.62Q28.33,27,26.55,28.45c13,5.31,28.74,9.42,33.72,9.74,1.38.09,2.86.25,4.33.25a37,37,0,0,0,9.77-1.81c1.87-.53,4-1.1,6.13-1.52l-1.75,1.74-9,9.73a4.53,4.53,0,0,0-1.23,5,6.29,6.29,0,0,0,2.34,2.59c2.14,1.44,6,2.42,9.55,2.42a18.06,18.06,0,0,0,3.81-.4c3.77-.85,7.72-4,11.92-7.33,3.34-2.65,8.08-6,11.71-7a13,13,0,0,1,3.27-.45,5.89,5.89,0,0,1,.84,0c2.4.31,4.72,1.12,8.86,4.23,7.39,5.55,40.07,34.14,40.39,34.42a6.29,6.29,0,0,1,2,4.81A5.23,5.23,0,0,1,160.6,89a8,8,0,0,1-4.29,1.33,6.93,6.93,0,0,1-3.78-1.09c-.12-.1-11.32-10.37-15.44-13.82a3.5,3.5,0,0,0-1.94-1,1.07,1.07,0,0,0-.86.4c-.65.8.08,1.91.94,2.63l13.08,13.15a6.28,6.28,0,0,1,1.8,3.55c.11,2.18-.93,4-3.1,5.42a8.57,8.57,0,0,1-4.64,1.53,6.68,6.68,0,0,1-3.73-1.13l-1.92-1.84c-3.42-3.38-7-6.86-9.56-9a3.48,3.48,0,0,0-2-1,1.1,1.1,0,0,0-.82.35c-.3.33-.5.92.23,1.9a6.59,6.59,0,0,0,.66.74l9.55,10.72c.08.09,2,2.34.21,4.57l-.33.43a8.94,8.94,0,0,1-.89.85,7.66,7.66,0,0,1-4.66,1.49,8.05,8.05,0,0,1-1.3-.11,3.25,3.25,0,0,1-1.87-.8l-.12-.12c-.52-.54-5.33-5.45-9.32-8.77a3.26,3.26,0,0,0-1.85-1,1.14,1.14,0,0,0-.86.39c-.79.86.39,2.15.89,2.63l8.15,9a2,2,0,0,1-.31.55c-.3.4-1.28,1.39-4.24,1.77a9.77,9.77,0,0,1-1.08.06,18.48,18.48,0,0,1-8-2.37,12.15,12.15,0,0,0-11-17.31h-.43c.22-3.06-.22-8.85-6.16-11.41a12.9,12.9,0,0,0-5.08-1.11,10.29,10.29,0,0,0-3.72.67,10.26,10.26,0,0,0-6-5,13.21,13.21,0,0,0-4.36-.77,11.47,11.47,0,0,0-6.78,2.18A10.22,10.22,0,0,0,51.3,76.07a9.2,9.2,0,0,0-.87.77C48,74.8,38,68.42,11.09,62.31,9.78,62,6.79,61.17,5,60.62c-.3,1.46-.53,2.93-.69,4.42,0,0,5,1.19,5.94,1.4,27.48,6.11,36.57,12.46,38.1,13.65a10.31,10.31,0,0,0,9.5,14.27,11,11,0,0,0,1.9-.17,12,12,0,0,0,7.76,9,10.24,10.24,0,0,0,3.67.71,9.35,9.35,0,0,0,2.35-.3A12,12,0,0,0,84,110.42a9.17,9.17,0,0,0,3.15-.56A12.13,12.13,0,0,0,107,113.67c2,1.1,6.1,3.07,10.28,3.07a11.67,11.67,0,0,0,1.56-.1c4.15-.52,6.09-2.14,7-3.41a5,5,0,0,0,.43-.69,11.47,11.47,0,0,0,3.29.51,11.08,11.08,0,0,0,6.65-2.38c2.16-1.56,3.7-3.79,3.92-5.7v-.08a11,11,0,0,0,2.22.23,12.35,12.35,0,0,0,6.83-2.17,9.86,9.86,0,0,0,4.9-8.77,11.3,11.3,0,0,0,2.25.23,11.8,11.8,0,0,0,6.4-2,9.36,9.36,0,0,0,4.41-7.24,9.81,9.81,0,0,0-1.41-5.84,264.06,264.06,0,0,1,42.39-13.28,40.59,40.59,0,0,0-.59-4.39A242.33,242.33,0,0,0,162.88,76.17ZM98.29,113.54A8.25,8.25,0,0,1,90,105.61c0-.39,0-1.4-.91-1.4a1.62,1.62,0,0,0-1,.53A5.79,5.79,0,0,1,84,106.58a7.29,7.29,0,0,1-2.69-.58c-4.73-1.92-4.8-5.17-4.6-6.48a1.22,1.22,0,0,0-.18-1l-.28-.26H76a1.4,1.4,0,0,0-.83.34,7,7,0,0,1-4,1.43,6.33,6.33,0,0,1-2.24-.44c-6.24-2.43-5.75-8.31-5.44-10.09a.88.88,0,0,0-.27-.82l-.44-.36-.42.39a6.38,6.38,0,0,1-4.47,1.82,6.48,6.48,0,1,1,6.4-7.3L64.51,85l1-1.47a9,9,0,0,1,10.35-3.68,6.54,6.54,0,0,1,4.58,6.09c.07.85.67.89.79.89a1,1,0,0,0,.75-.4,6.54,6.54,0,0,1,4.77-2,9.12,9.12,0,0,1,3.45.77c6.09,2.61,3.33,10.36,3.3,10.44-.53,1.28-.55,1.85-.06,2.18l.24.11h.18A4.37,4.37,0,0,0,95,97.59a10.4,10.4,0,0,1,3.25-.71h0a8.32,8.32,0,0,1,.58,16.63h-.58Z"/></g></g></g></g></svg>